<?xml version="1.0" encoding="UTF-8"?>
<svg id="Layer_1" data-name="Layer 1" xmlns="http://www.w3.org/2000/svg" version="1.1" viewBox="0 0 358.2 62">
  <defs>
    <style>
      .cls-1 {
        fill: #022a50;
        stroke-width: 0px;
      }
    </style>
  </defs>
  <path class="cls-1" d="M66.2,23.5c-.2,0-.7.2-1.1.2.7-.6,1-1.4,1-2-.3.1-.9.3-1.4.4,1-.9,1.6-1.9,1.3-3.2-.3.2-.7.4-1.2.6.9-1.4.9-2.6.5-3.3-.4.4-.9.8-1.4,1.1.3-1.6.3-2.6-.3-3.3-.7,1.3-1.2,2.2-2.2,3.3,0-1,0-2.3-.7-3,0,0-.2,1.4-.7,1.9-.1-1.4-.6-2.2-1.2-2.9,0,0,0,1.5-.4,2.4-.3-1.2-1-2.2-1.8-3.1,0,2.7-.7,7.9-2.9,11.3-.3,2-.5,5.1-3.8,7-.5-.3-1.3-.8-2.5-.7-.3-1.5,1.7-3,3.5-4.1,1.8-1.1,2.5-2.1,2.5-3.6,0-1.7-1.2-2.3-2.3-2.4-1.6,0-3,1.4-3.3,2-.5.2-1.9.7-2.5.8-.6.2-1.4.4-1.8.8.3.2,1,.2,1.3.2.6,0,2.3-.4,4-.6.6.3,1.6.9.6,1.6-1.4.9-2.1,1.2-4.1,2.2-3.2,1.7-2.2,5.9-1.4,6.2,0,1.4,1.3,4,2.2,4.9.4,1.8-.1,4.5-.7,5.6-.5-1.1-1.2-3.6-1.7-5.1.5-2.8-.3-4-.9-4.5s-1.5-.3-2.1.6c.9,0,1.2,1.1,1.2,2.3,0,1.5-.4,2.7-1.4,2.7,0,1.3,1.4,1.6,2.1,1,.1.3.7,1.9,1.2,3.4.3.9.6,1.7.8,2.1.2.5,1.8.5,2,0,.2-.7.4-1.3.8-2.1.3-.6.7-1.5,1.3-2.7.4.7,1,1.9,1.3,2.7.2.4.3.7.3.8.1,1.2,0,5.5-.3,8-3.5-1-4.5.8-4.2,2,.5-.6,1.2-.5,1.6-.2,0,.9.2,1.6,1.1,1.9,1-2.7,4.6-2.1,5-1.8,0-.5.5-1.8-1.4-2.1,0-2.3.3-5.1.4-5.7,0-.6.2-1-.1-1.9,0-.3-.2-.6-.3-1-.2-.9-.5-2.2-.5-3.5.3.3,1.1.6,1.6.5.4,1.7,1,1.2,1.3,2,.2.4.2.7.2,1,0,.3,0,.6.3.8,1.2,0,2.3-.3,3.1-.8.2-.2.4-.3.6-.5-.3-1.8-.8-2.8-1.8-3.9-.2-1.5-1-2.9-1.9-4.1,1.2-.4,2.5-1.4,3.1-2.1.6,0,1.3-.5,1.3-1.5.3,0,.6,0,.9-.1,0-.3,0-.7-.1-.9.5,0,.9,0,1.3,0-.1-.4-.3-.7-.4-1,.5,0,1,0,1.5,0-.2-.5-.4-.8-.6-1.2.5,0,1.3-.2,2-.3-.2-.2-.5-.5-.8-.8,1.7-.5,2.5-1.7,2.5-2.2-.2,0-.8.1-1.1,0,1-.6,1.6-1.3,1.7-2.2"/>
  <path class="cls-1" d="M42.2,27.3h-21.6v8c.1,0,.2.1.3.2v-7.9h21.5v7.3c0,0,.2.2.2.3v-8h-.4"/>
  <path class="cls-1" d="M31.6,54.9c-9.6-3.6-10.8-11.4-10.8-14.9h0s0-.3,0-.3c0-.8,0-1.3,0-1.5,0-.5-.1-.9-.2-1.2v-.2c0,0,0,3.7,0,3.7,0,4.1,1.5,7.7,4.5,10.6,2.6,2.5,5.6,3.7,6.4,4h.1s.1,0,.1,0c.8-.3,3.8-1.5,6.4-4,3-2.9,4.5-6.5,4.5-10.6v-.7c0,.1-.2.2-.2.3,0,1.8-.4,4.7-1.7,6.9-1.5,3-3.8,5.5-9.2,7.9"/>
  <path class="cls-1" d="M14.4,5.7c1.4.7,1.8-.6,4.3,1.1-1.7.5-3,2.6-4.9,2.1,1.4-.7,1.2-1.7,2-2.2-.5,0-1.5-.3-1.5-1ZM19.3,19.3c-.8-.3-2.1-.5-2.8.4-.4-.7.2-1.7.5-2-1.8,0-2.8-.5-3.1-1.1.7-.4,2.3-1,3.7,0,.9.7,1.4,1,2.5,1.4.4-.4.2-.2.4-.3-.9-.6-1.3-5.5-3.1-5.7.3-.6,1.2-.6,1.9-.4,0-1.1-.4-2.9-1.1-3.9,1-.6,1.8,0,2.1,1.3.4,1.4,0,4.8.8,7.9l.6-.5c-.3-1.8,1.7-2.5,2.1-3.4.2,1.2,0,1.8-.4,2.2.7,0,1,.8.9,1.3-1.7-.2-2.7,1.5-2.3,2.9-1.3.3-2.2,0-2.9-.2h0ZM27.8,20.3c-1.5,0-3,2-2.3,4.2-.2,0-.9,0-1.1-.4-.2.7-1.6,1.5-2.7,1.4.6-.6,1-2.1,2.1-2.8,1.1-.8,1.7-1.3,2.1-2.6-.5.2-3.3,1-4.1.1,1.8-.3,4-1.3,5.1-2l-.4-.5c-1.1.6-2.7,1.2-3.5,1.4-.3-2.3,1.9-2.2,2.1-1.6.9-1.1.3-2.6-.4-2.8.7-1.8,0-2.9-.6-3.6-.1,1.9-2.3,2.2-2.6,3.7,0-1.2-.2-4.4-.2-5.9-.2-2.9-3.8-3.9-4.4-3.9-2.4.1-2.6-.2-2.6-1.3-1.2,1.4-.8,2.6.2,3.2-.1.8-1.5,1.5-2.3,1.6,1.9,1.8,4.2.7,5.3-.3l.2-.2c.4.7.7,1.9.7,2.7-1.8-.1-2.1,1.3-2.1,1.8,2.3-1,2.6,3.5,3.2,4.2-.6,0-1.6-1.4-3.2-1.5-1.9-.1-2.5.9-3.2.8.1,1.3,1.7,2,2.8,2.2-.5,1.3,0,2.2,1,2.6,0-1.2,1.5-1.6,3.2-.6,2,1.2,3,1.3,4.6.8-.3.6-1,.6-1.9,1.5-1.2,1.2-1.3,2.8-2.7,3.4,1.6.8,4.1-.3,4.4-.9.7.4,1.5.2,1.8-.2-1.1-2.4.8-3.9,1.5-3.9,0,0,.3-.7,0-.7"/>
  <path class="cls-1" d="M44.6,7.1c.8-.6,1.3-.8,1.8-1.1.7,0,1.9,0,2.6-.4-.8.9-.8,1.3-2.1,1.4,1.6.1,2.3,1.6,3.1,1.8-2.7.8-2.9-1.8-5.4-1.7ZM47.9,15.1c.8.7.5,1.6.3,1.8-.7-1.2-3-.8-5.2,1.7-.2.2-.4.4-.6.6.2-3-2.3-3-3-2.7,0-.9.6-1.4.9-1.5-.7-.8-.9-1.9-1-2.6,1.2.5,3,1.9,3.3,4.3l.8-.5c-.2-4.2-.2-4.2-.2-7,0-.4,0-1.3,1.3-1.2,0,1.1.2,3.9.2,7.8h.5c.4-1.1,1.8-2.4,3.5-2.3,1.2,0,1.5,0,2.2-.2-.5,1.3-2.5,1.9-3,2h0ZM45.5,13.6c0-2.7,0-4.9-.1-5.6h.3c1.9.8,2.4,3.1,6.4.5-2.2.2-2.3-1.6-3.2-1.6,1.5-.8,1.6-2.8,1.6-2.8-1.2,1-4.1,1.1-4.7,1.4-.8.4-1.7,1-2.3,1.3-1.7.9-.5,5.9-.7,7.7-.9-2.7-2.7-2.3-3.7-3.8-.7,1.3,0,3.4.3,4.1-1,.8-.8,2.4-.5,2.8.9-.6,2.3-.5,2.7.6-1.2.7-3.1.8-4.5-.5l-.5.5c.9,1.2,3.3,1.7,5,.7,0,.3,0,.6-.2,1-.9.5-2.1.7-3.4.3.2,1.4,1.7,2.4,3.2,2.8-.5.4-1.1.5-1.6.5.3.8.4,1.8-.2,2.7-.7-.5-1.1-1-1.4-2.9-.3-1.9-1.7-3.9-2.7-4.2,0,.7,0,.4,0,.8,2.8,2.1,1.2,5.8,4.2,7.2,1.1-1.2,1.1-1.7.9-2.8,1.1-.3,1.9-1.2,2.2-1.9-1,.5-2.6-.4-3.1-1,1.8,0,3.4-1.4,5-3.1,1.5-1.6,3.5-1.3,3.3-.1,1-.1,1.4-1.6,1.1-2.5,1.5-.5,2.7-1.6,2.8-3.3-2,1-4.6-.7-6.5,1.4"/>
  <path class="cls-1" d="M34.5,22.8c-.1,0-.3,0-.3.2h-.5c0,0,0-.9,0-.9.2,0,.3-.2.3-.4s-.2-.4-.4-.4-.4.2-.4.4,0,.3.2.4v.8s-.5,0-.5,0c0-.2-.2-.3-.4-.3s-.4.2-.4.4.2.4.4.4.3,0,.4-.2h.5s0,1.3,0,1.3c-.1,0-.2.2-.2.4,0,.2.2.4.4.4s.4-.2.4-.4-.1-.3-.3-.4v-1.2s.4,0,.4,0c0,.2.2.3.4.3s.4-.2.4-.4c0-.2-.2-.4-.4-.4"/>
  <path class="cls-1" d="M30.8,22.6c-.2,0-.3.1-.4.3h-.5s0-.8,0-.8c.1,0,.2-.2.2-.4,0-.2-.2-.4-.4-.4s-.4.2-.4.4.1.3.3.4v.9s-.5,0-.5,0c0-.1-.2-.2-.3-.2-.2,0-.4.2-.4.4s.2.4.4.4.4-.1.4-.3h.4c0,0,0,1.1,0,1.1-.1,0-.2.2-.2.4s.2.4.4.4.4-.2.4-.4-.1-.3-.2-.4v-1.3s.5,0,.5,0c0,.1.2.2.4.2.2,0,.4-.2.4-.4,0-.2-.2-.4-.4-.4"/>
  <path class="cls-1" d="M31.6,26.2c-.6,1.2-1.9,1.2-2.9.5-.4-.3-.9-.5-1.2-.5.2-1.2.5-3.5.7-5.5,1.4-.6,3-.8,3.5.8.4-1.6,2.1-1.4,3.4-.8.2,1.9.5,4.2.7,5.5-.4,0-.8.2-1.2.5-1,.7-2.2.7-2.9-.5ZM36.5,26.3c-.3-1.8-.9-6.6-1-8.3h-.8c0,.3,0,.7,0,1.1-.9-.3-2.1-.5-3.3-.5s-2.4.2-3.3.5c0-.4,0-.8,0-1.1h-.8c0,1.6-.7,6.5-1,8.3-.5.2-.7.6-.7,1.4,0,0,4.1,0,5.6,0s5.6,0,5.6,0c0-.8-.3-1.2-.7-1.4"/>
  <path class="cls-1" d="M53.6,61.3H9.6c-.2-1.4-.5-2.3-.7-3h45.3c-.2.8-.5,1.6-.7,3ZM23.8,51.8c.4.6.8,1,1,1.5.2.5,0,.8-.3,1.3-.8,1.2-2.3,2.2-3.4,2.8h-4.4c2.8-.8,6.5-3.2,7.1-5.6h0ZM21.1,51c.4-.7,1.2-.9,1.8,0,.2.3.1,1.2-.9,2.4-.8-.7-1.3-1.6-.9-2.3h0ZM38.7,54.7c-.4-.5-.5-.8-.3-1.3.2-.5.6-.9,1-1.5.6,2.5,4.4,4.8,7.2,5.6h-4.4c-1.1-.6-2.6-1.6-3.4-2.8h0ZM40.2,50.9c.6-.8,1.5-.6,1.8,0,.4.7-.2,1.6-.9,2.3-1-1.1-1.2-2-.9-2.4h0ZM54.5,57.3c-.5.1-1,.2-1.9.2h-1.1c-3.7,0-7.4-1.2-9.7-3.5,3.2-3.2-.6-5.8-2.6-3.1-.6.8-1.1,1.5-1.6,2.3-.3.7,0,1.3.7,2.4.4.6,1.5,1.4,2.4,2h-18.3c.9-.6,2-1.4,2.4-2,.8-1,1.1-1.7.7-2.4-.4-.8-1-1.4-1.6-2.3-2-2.7-5.8,0-2.6,3.1-2.3,2.4-6.1,3.5-9.7,3.5h-1c-.9,0-1.4,0-1.9-.2-.8-.2-.9.1-.5,1.5.3.9.5,2.3.6,3.3h45.6c0-1,.3-2.4.6-3.3.4-1.3.2-1.6-.5-1.5"/>
  <path class="cls-1" d="M14.9,60.1h0s.3-.9.3-.9h0s0,0,0,0l.3.9h0s-.7,0-.7,0h0ZM15.6,60.3h0s.1.3.1.3h0c0,0,0,0,0,0h0s.5,0,.5,0h.1s0,0,0,0h-.1c0,0-.1,0-.2-.3-.2-.4-.6-1.5-.6-1.6h0c0,0,0,0,0,0l-.6,1.6c0,.1-.1.2-.2.2h-.1s0,0,0,0h.6s0,0,0,0h0c0,0-.1,0-.1,0v-.2s0-.2,0-.2h0s.8,0,.8,0"/>
  <path class="cls-1" d="M16.9,59.9c0,.4.1.6.2.7.2.2.4.2.6.2s.4,0,.5-.2c.2-.2.2-.5.2-.8v-.8c0,0,0-.1,0-.2h0s0,0,0,0h0s-.3,0-.3,0h-.4s0,0,0,0h0c0,0,.1,0,.1.2v.9c0,.3,0,.5-.1.7-.1,0-.2.1-.4.1s-.2,0-.3-.1c-.1-.1-.2-.3-.2-.6v-.9c0,0,0-.1.1-.2h0s0,0,0,0h0s-.3,0-.3,0h-.4s0,0,0,0h.1c0,0,.1,0,.1.2v.5s0,.4,0,.4"/>
  <path class="cls-1" d="M19.9,59.4v-.5h0s.2,0,.2,0c.2,0,.5,0,.7.3.1.1.2.3.2.7s0,.5-.2.7c-.2.1-.3.2-.6.2s-.3,0-.3,0v-.2s0-.5,0-.5v-.3h0ZM19.6,59.9c0,.2,0,.5,0,.6,0,0,0,.1,0,.2h0s0,0,0,0h0s.3,0,.3,0h.6c.5,0,.8-.2.9-.3.1-.2.3-.4.3-.7s-.1-.5-.2-.7c-.3-.3-.7-.3-1-.3h-.8s0,0,0,0h.1c0,0,.1,0,.1.2v.5s0,.4,0,.4"/>
  <path class="cls-1" d="M22.5,60.1h0s.3-.9.3-.9h0s0,0,0,0l.3.9h0s-.6,0-.6,0ZM23.2,60.3h0s.1.3.1.3h0c0,0,0,0,0,0h0s.5,0,.5,0h.1s0,0,0,0h-.1c0,0-.1,0-.2-.3-.2-.4-.6-1.5-.6-1.6h0c0,0,0,0,0,0l-.7,1.6c0,.1-.1.2-.2.2h-.1s0,0,0,0h.6s0,0,0,0h0c0,0-.1,0-.1,0v-.2s.1-.2.1-.2h0s.8,0,.8,0"/>
  <path class="cls-1" d="M25.7,59c0-.1.1-.2.2-.2h0s0,0,0,0h0s-.3,0-.3,0h-.3s0,0,0,0h0s0,0,0,0h0c0,0-.4.6-.4.6l-.3-.6h0c0,0,0-.1,0-.1h0s0,0,0,0h0s-.3,0-.3,0h-.4s0,0,0,0h.1c0,0,.1.1.2.2l.5.7-.5.7c0,.1-.1.2-.2.2h-.1s0,0,0,0h0s0,0,0,0h.6s0,0,0,0h-.1s0-.2,0-.2l.4-.6.4.7h0c0,0,0,0,0,0h0s.5,0,.5,0h.1s0,0,0,0h-.1c0,0-.1,0-.1-.1,0,0-.5-.8-.6-.9l.4-.6"/>
  <path class="cls-1" d="M29.3,60.1h0s.3-.9.3-.9h0s0,0,0,0l.3.9h0s-.7,0-.7,0h0ZM30,60.3h0s.1.3.1.3h0c0,0,0,0,0,0h0s.5,0,.5,0h.1s0,0,0,0h-.1s-.1,0-.2-.3c-.2-.4-.6-1.5-.6-1.6h0c0,0,0,0,0,0l-.6,1.6c0,.1-.1.2-.2.2h-.1s0,0,0,0h.6s0,0,0,0h0c0,0-.1,0-.1,0v-.2s0-.2,0-.2h0s.8,0,.8,0"/>
  <path class="cls-1" d="M31.6,59.9c0,.2,0,.5,0,.6,0,0,0,.1,0,.2h0s0,0,0,0h0s.3,0,.3,0h.5s0,0,0,0h-.1c0,0-.1,0-.1-.1,0-.1,0-.3,0-.6v-1.1h.3c.2,0,.3,0,.3.2h0s0,0,0,0h0s0-.3,0-.3h0s-.2,0-.2,0h-1.3s-.1,0-.1,0h0s0,.3,0,.3h0s0,0,0,0h0c0-.2.1-.2.2-.2h.4s0,1,0,1"/>
  <path class="cls-1" d="M36.1,59.7h0s.4,0,.4,0c0,0,.1,0,.1,0h0c0,0,0,.1,0,.1h0s0-.2,0-.2v-.2s0,0,0,0h0s-.1,0-.1,0h-.5v-.7h0s.4,0,.4,0c0,0,.2,0,.2,0h0c0,0,0,.1,0,.1h0s0-.2,0-.2h0c0-.1,0-.1,0-.1h0s-.1,0-.1,0h-1.1s0,0,0,0h0c0,0,0,0,.1.2v.5s0,.5,0,.5c0,.2,0,.5,0,.6,0,0,0,.1,0,.2h0s0,0,0,0h0s.3,0,.3,0h.5s0,0,0,0h-.1c0,0,0,0,0-.2,0-.1,0-.3,0-.6v-.2"/>
  <path class="cls-1" d="M37.8,59.9v.6c0,0,0,.1,0,.1h0s0,0,0,0h0s.3,0,.3,0h.5s0,0,0,0h-.1c0,0,0,0,0-.1v-.6s0-.5,0-.5v-.5c0,0,0-.1,0-.2h0s0,0,0,0h0s-.3,0-.3,0h-.4s0,0,0,0h0c0,0,0,0,0,.2v1"/>
  <path class="cls-1" d="M39.7,59.4v-.5h0s.2,0,.2,0c.2,0,.5,0,.7.3.1.1.2.3.2.7s0,.5-.2.7c-.2.1-.3.2-.6.2s-.3,0-.3,0v-.2s0-.5,0-.5v-.3h0ZM39.3,59.9c0,.2,0,.5,0,.6,0,0,0,.1,0,.2h0s0,0,0,0h0s.3,0,.3,0h.5c.5,0,.8-.2.9-.3.2-.2.3-.4.3-.7s-.1-.5-.3-.7c-.3-.3-.7-.3-1-.3h-.8s0,0,0,0h0c0,0,0,0,.1.2v.5s0,.4,0,.4"/>
  <path class="cls-1" d="M42.1,59.9v.6c0,0,0,.1,0,.2h0s0,0,0,0h0s.3,0,.3,0h.7c0,0,.1,0,.1,0v-.3s0,0,0,0h0c0,.1,0,.2-.1.2s-.2,0-.2,0c-.3,0-.3,0-.3-.2v-.6h0s.4,0,.4,0c0,0,.1,0,.2,0h0c0,.1,0,.1,0,.1h0s0-.2,0-.2v-.2s0,0,0,0h0s-.1,0-.1,0h-.4s0,0,0,0v-.7h0s.4,0,.4,0c.1,0,.2,0,.2,0h0c0,0,0,.1,0,.1h0s0-.2,0-.2v-.2s0,0,0,0h0s-.1,0-.1,0h-1.1s0,0,0,0h0c0,0,.1,0,.1.2v1"/>
  <path class="cls-1" d="M44.5,59.5v-.5c0,0,0-.1,0-.2h0s0,0,0,0h0s-.3,0-.3,0h-.4s0,0,0,0h0c0,0,0,0,.1.2v.5s0,.5,0,.5c0,.2,0,.5,0,.6,0,0,0,.1,0,.2h0s0,0,0,0h0s.3,0,.3,0h.8c.1,0,.2,0,.2,0v-.3s0,0,0,0h0s0,.2,0,.2c0,0-.2,0-.3,0-.2,0-.3,0-.3,0s0-.2,0-.6v-.5"/>
  <path class="cls-1" d="M46.1,59.9v.6c0,0,0,.1,0,.1h0s0,0,0,0h0s.3,0,.3,0h.5s0,0,0,0h-.1c0,0,0,0,0-.1,0-.1,0-.3,0-.6v-1c0,0,0-.1.1-.2h0s0,0,0,0h0s-.3,0-.3,0h-.4s0,0,0,0h0c0,0,0,0,0,.2v1"/>
  <path class="cls-1" d="M47.9,60.7c.1,0,.3,0,.4-.1.2-.1.2-.3.2-.5,0-.2-.1-.4-.4-.7h0c-.2-.2-.3-.3-.3-.4s.1-.3.3-.3.2,0,.3.1c0,0,0,.2,0,.2h0s0,0,0,0v-.3s0,0,0,0c0,0-.2,0-.3,0-.4,0-.6.2-.6.5s0,.4.4.6h.1c.2.3.2.4.2.5s-.1.3-.3.3-.3,0-.4-.3h0c0-.1,0-.2,0-.2h0c0,0,0,.4,0,.4h0c.1.1.2.2.4.2"/>
  <path class="cls-1" d="M31.6,15.3c-1.4,0-2.9.3-4.1.8,0-.3.1-.5.3-.7.7-.8,2.5-1.1,3.8-1.1s3.1.3,3.8,1.1c.2.2.3.4.3.7-1.2-.5-2.7-.8-4.1-.8ZM34,17.2l-.4-1c.6.1,1.3.3,1.8.5l.2,1c-.4-.2-1-.4-1.6-.6ZM30,17l-.7-.7c.6-.1,1.2-.2,1.8-.3l.4.8c-.6,0-1.1,0-1.5.2h0ZM27.6,17.8h-.2c-.3.2-.5.1-.6,0,0-.1,0-.4.3-.6h.1c0,0,.7.5.7.5l-.4.2h0ZM31.6,12.7l1,.7c-.4,0-.8,0-1,0s-.6,0-1,0l1-.7ZM30.5,10.1c-.4-.9-.5-2,.7-1.5v1.5c.1,0-.7,0-.7,0ZM31.5,6.9h.2c0,.1.2,0,.2,0l.7-.5-.4,1.4h0c0-.2-.2-.3-.4-.3s-.4.1-.4.3h0s-.4-1.4-.4-1.4l.7.5h0ZM32.5,12.6l-.7-.5h-.2c0-.1-.2,0-.2,0l-.7.5.5-1.5h.8l.5,1.5ZM32.8,10.1h-.8v-1.5c1.3-.6,1.2.6.8,1.5ZM28.6,10.4l.5-.7v-.2c.1,0,0-.2,0-.2l-.5-.7,1,.3c0,.4.2.8.3,1l-1.3.4h0ZM33.6,9l1-.3-.5.7v.2c-.1,0,0,.2,0,.2l.5.7-1.3-.4c.1-.3.2-.6.3-1h0ZM40.1,7.2c0-.4-.7-.7-.9-.7-.3,0-.7.6-1.1,1-.3-1.9-.2-2.7,0-3.5.8,1.4,1.8,1.7,2.4,1.7-1.9-1.5-1.6-2.9-2.2-3-.3,0-.6,0-.7,0-.7,0-.8,1.3-.8,1.9-.4-.8-.9-1.5-1.6-2.4-.7-1.8-1.6-1.4-2.4-2.2.7,1,.1,1.7,1.7,2.4.4.4.9,1,1.2,1.5-.3.3-.4.6-.7.8-.2.3-.3,1.4-.9,2.2.9-.4,1.2-.9,1.6-1.5,2.8,2.1.5,7.6-.1,8.8-.6-.4-1.4-.7-2.2-.8v-.2c0,0-.8-2.2-.8-2.2h.3c.3,0,.4-.2.4-.4l2,.6.9.3-.5-.7-.9-1.3.9-1.2.5-.7-.9.3-1.8.5c-.1-.4-.5-.6-.8-.6l.6-2,.2-.9-.7.5-1.3.9-1.3-.9-.7-.5.2.9.6,2c-.4,0-.7.2-.8.6l-1.8-.5-.9-.3.5.7.9,1.2-.9,1.3-.5.7.9-.3,2-.6c0,.2,0,.4.4.4h.3l-.7,2.2v.2c-.8.1-1.6.4-2.3.8-1.9-3.7-1.4-7.5.2-8.7,0,.8.7,1.9,1,2.1-.2-.8.2-2.3-.3-2.6-.3-.2-.7-.4-1.2-.4.3-.5.8-1.2,1.5-2.2,1.1-.5,1.5-1.8,1.7-2.5-1.2.5-2.1,1.1-2.3,2.1-.4.6-.9,1.2-1.5,2,0-1-.5-1.3-1.2-1.4-2.1.4-1.9,1.9-3.7,3,1.2.4,3.1-2.2,3.8-1.9.1,1.6-.3,2.9-.3,3.8-.3-.3-.5-.6-.7-.6-.2,0-.9,0-1.4.5-.1.8-.1,2.4-.9,4.2,1.1-1.1,1.7-3.1,1.9-3.7.3.4.6,1.3.7,2.1.1,1.5,1,3.9,1.8,5.1-.2.4-.3.9-.2,1.4-.6.5-.7,1.1-.5,1.5.2.5.8.8,1.5.5h.2c.7-.4,2.1-1,3.7-1s3,.6,3.7.9h.2c.7.4,1.3,0,1.5-.4.2-.4.1-1-.5-1.5,0-.5,0-1.1-.3-1.5h0c1.4-2,1.5-5.8,2.7-6.9,0,1.4.8,2.5,1.5,2.6-.6-.9-.6-2.8-.5-3.6"/>
  <path class="cls-1" d="M22.2,38.5h-.9c-.1,1.5,0,2.9.1,4.1.5-.9,1.1-1.8,1-2.4,0-.6-.2-1.2-.3-1.7"/>
  <path class="cls-1" d="M25.3,41.1c.3.8.7,2.2,1,3.1-.3,0-.5,0-.8,0-.1-.3-.6-1.4-1-2.5-.4-1,.6-1.2.8-.7h0ZM27.2,40.2c0-.5,1.5-.6,1.2.5-.3,1.1-.6,2.4-.8,3.5h-.7c-.2-1.1-.6-2.4-.8-3.5-.3-1.1,1.1-1,1.2-.5h0ZM29.8,41.8c-.5,1.1-.9,2.2-1,2.5-.2,0-.5,0-.7,0,.3-.9.7-2.2,1-3.1.2-.6,1.2-.3.8.7h0ZM25.3,44.8c.3-.1,1.5-.2,1.8-.2s1.5,0,1.8.2c0,.2,0,.4,0,.5-.5.1-1.2.2-1.8.2s-1.4,0-1.8-.2c0-.2,0-.4,0-.5ZM28.6,48.3c-.4,0-1,.1-1.4.1s-1,0-1.5-.1v-.7c-.1,0-.5-.1-.7-.2.1-.4.3-.8.5-1.4.5.1,1.1.2,1.7.2s1.1,0,1.7-.2c.2.6.4,1,.5,1.4-.2,0-.5.2-.8.2,0,0,.2.7.2.7ZM22.6,38.5c.1.5.3,1.1.3,1.7,0,.7-.5,1.7-1.1,2.6l-.2.3c1.7,8.2,9.6,11,9.6,11v-15.7s-6,0-8.7,0"/>
  <path class="cls-1" d="M40,40v-.4s.4,0,.4,0c.5,0,.8-.5.9-1.1-2,0-9.4,0-9.4,0v7.6c.6-.5,1.2-.8,2-1.1v-1.7h.8c0-1.8.5-3.2,1.3-4l.2-.3.2.3c.8.9,1.3,2.2,1.3,4h.8v1.8c.8.3,1.4.9,1.8,1.4.7-1.4,1.2-3,1.4-4.9h-.1c-.8,0-1.6-.6-1.7-1.6"/>
  <path class="cls-1" d="M41.9,38.5h-.2c-.2.9-.6,1.5-1.3,1.5,0,.9.7,1.3,1.3,1.3h.2c0-.9,0-1.8,0-2.8"/>
  <path class="cls-1" d="M38.1,48.3l-.7-.8-1.1,1,.5.5s.5-.2.9.3c-.3.3-.9.8-1.2,1-.4-.5-.1-.9-.1-.9l-.5-.5-1.4,1.2-.5-.5,1.4-1.2-.5-.6-.5.4c-.4-.5-.7-1.1-.4-1.9.8-.2,1.4.2,1.8.7l-.5.4.5.6,1.2-1-.7-.8c.6,0,1.1.1,1.4.5.3.3.5.9.3,1.5h0ZM36.3,45.4c-2.2,0-3.1.6-4.3,1.5v7.2s5.3-1.8,8.1-6.9c-.6-1-1.6-1.9-3.8-1.9"/>
  <path class="cls-1" d="M23.2,32.3c1.1-.6,1.7-1.1,2.3-2-.4-.2-1-.6-1.3-1.1,2.1.6,3.2.9,5.7,0-.4.6-1,1-1.5,1.4.6.9,1.1,2,1.3,2.8-.7,0-1.6.1-2.2.7-.9,0-2.1.3-2.8-1.8-.3.2-.7.4-.7.4.4,1.4,1.1,2.3,2.9,2.1.1.4.2.7.4,1.1-.8.4-2.7,1.6-4.1.3v-3.8ZM30.2,35.5c-.2.3-1.4.7-1.7.5-.5-.3-.8-1-.6-1.2.1-.4,1.5-.7,1.9-.6.4.1.6,1.1.4,1.4h0ZM33.7,33.9v-.4h-.9c.2-1,2.1-2.2,3-2.5,0-1.1,1.4-1.4,2.5-1.5,1.4,0,1.7,1.5,1.7,1.9s-.2,2-.9,2.4c-1.1.6-2.1-.2-2.1-1s.6-1.3,1.6-1.2.9-.5.2-.6c-.4,0-2-.2-2.5,1-.3,0-.6-.1-.8-.3-.2.3-.5.4-1,.6.4.8,1.2.7,1.7.3v.3c0,2,2.1,2.4,3.3,1.7-.2.6-.1,1.4,0,2h-5c0-.5.8-1.2,1.3-1.5l-.5-.7c-.5.2-1.1.5-1.7.6-1.4.4-1.3-.6.1-1h0ZM21.7,34.6c.6.5.8.8.6,2.3,0,.2,0,.6.2,1h19c0-.2,0-.4,0-.6,0-.8-.1-1.5-.4-1.8,0,0-.2-.1-.4-.1h-.8c0,0,.4-.6.4-.6.4-.6,1-1,1.6-1v-5.6h-20.4v6.3h.2c0,.1,0,.2,0,.2"/>
  <path class="cls-1" d="M21.4,34.9v3h.7c-.1-.4-.2-.8-.2-1,.2-1.5,0-1.7-.5-2"/>
  <path class="cls-1" d="M41.9,37.9v-3.8c-.4,0-.9.3-1.2.9h.1c.8,0,1.1,1.1,1.1,2.3,0,.2,0,.4,0,.6h0"/>
  <path class="cls-1" d="M26.4,32.7c.4.2.8,0,1.2,0,0-.2-.2-.3-.1-.6.1-.5-.3-.7-.5-.7-.5,0-.8.1-1.3,0,.4.4.3,1,.8,1.3"/>
  <path class="cls-1" d="M21.9,36.9c.2-1.6,0-1.7-.5-2.1-.4-.3-1-.4-1.7-.9-.5-.3-.6-.8-1.2-1.4.1-1.3,1.1-2.9,1.8-3.3.1,0,0-2.1,0-2.1,0,0,.5,0,.4,0-.6-.4-1.4,0-1.9.5-.5.4-1.7,1.2-2.6,1.5-1.1-1-2.9-1.8-4.2-3.1,0,0,1.7,0,2.5-.3.2-.1.8-1,.5-1.8-.3,0-.6-.3-1-.5-.5-.3-.9-.5-1.1-.7-.7-.6-1-1-2.3-1.4,0-.6.2-.5.8-.8.7-.5,1.1-1.1,1.4-1.6.2-.5,0-1.4-.6-.2-.2.4-.8,1-1.4,1.1,0-.4,0-.6,0-.8,1.9-1.3,1.7-2.5,1.5-3.6,0-.6-.7-.9-.7-.2,0,.4.4,1.7-.9,2.4,0-.5-.2-.8-.3-1.1,1.1-1.5.7-2.9.2-3.6-.3-.4-1.1-.6-.7.1.3.6.7,2-.1,2.6-.3-.4-.6-.5-.7-1,.1-1.7,0-2.7-.2-3.2-.2-.5-.7-.9-.7,0,0,.9.1,2.1,0,2.1s-1.3-1.1-1.8-1.4c-.5-.3-1.1-.2-.5.5.5.6,2.1,1.7,1.8,2.1-.1.2-1.2-.7-1.8-.9-.6-.2-.8.1-.3.5.8.6,1.3,1.1,2.6,1.5,1.3.4,1.9,2.2,1.5,4.8,0,.1-.2.1-.4,0,0-1-.2-2.1-.5-2.7-.3-.7-.9-.7-.7.2.2.7.3,1.5.1,2.5-1.1-.2-1.5-.5-1.9-.7,0-.5.2-1.3.2-2,0-.7-.4-1.2-.6-.3-.2.9-.4,1.3-.5,1.9-.3-.1-.6-.2-.8-.4v-1.8c-.2-.8-.5-.8-.7,0-.1.3-.2.8-.2,1.3-.4-.2-.6-.7-.7-1,0-.8.2-1.7.3-2.3,0-.4-.2-1.2-.5-.2-.2.7-.3,1.3-.4,1.8-.3,0-.6-1.6-.8-2.6,0-.5-.5-1-.5,0,0,1.1.2,2.3.4,2.8-.5,0-1.1-1-1.5-1.6C.1,14.9,0,15.4,0,15.6c.3,2,1.9,2.7,2.7,2.9,1.1,1.6,3.3,2.3,5.1,3.1-2.4,0-3,.9-4.1.3,0,.9.5,1.3.9,1.5.3.1.6.2.7.2.2,1.1,1.2,1,2.1,1.1-.2,2.1,0,4.9,1.9,7,0,1.1-.1,2.5-.1,3.4-1.5,1.4-2.9,4.4-3.4,6-.4,1.2-1,2.2-1.9,2.6.8.8,1.9.4,2.5,0,0,.7.2,1.2.3,1.7-.4.6-.7,1.1-.7,1.9-.5.1-.8.4-1.1.8-.2.2,0,1.2.2,1.6.6,1.3.1,4.4,0,5.3.3,0,.7,0,.8-.3.2.1.5.4.7,1,0,.2-.2,1.2.3,1.3.4,0,2.1,0,2.3-.2-.2-.2-.5-.7-.6-1.1,0-.5,0-1-.2-1.3-.2-.3-.7-1.1-1-1.4,0-.6-.1-3,.1-4,.4-.3,3.4-2.5,4-4.7.6.2.4,1.7.4,3.6s.6.8,1,.8c.8,0,2,.9,3.3,2.8.2-.3.6-.5.6-.5.2.2.4.8.5,1.1.1.3,1.2.4,2,.2.3,0,.4-.1.6-.4-1-1.8-1.6-2.9-2.9-3.9-.6-.5-1.4-.7-2.1-1.1.4-.8,1.7-4.8.9-6.3-.2-.5-1.2-1-2.3-.7,1-1.2,2.9-3.4,3.2-4.1.2.3,1.4,0,2.2.4.3.1,1.2,1.3,1.2,1.7,0,.7.1,1.5-.4,3.5.3,0,.3,0,.6-.2,0,.5-.1.9-.5,1.7.1.7.4,1.8.8,2,.4-1.3,2-3.1,2-4.2,0-1.5-.8-2.7-.7-3.3"/>
  <path class="cls-1" d="M83.8,28.6c-.3-1-1.3-2.4-3.4-2.4s-2.4.7-3,1.7c-.7,1.2-1,2.9-1,5.3,0,3.3.6,5.4,1.7,6.2.6.4,1.4.7,2.3.7,2.7,0,3.8-2.1,3.8-7s-.2-3.4-.5-4.5h0ZM89.8,46s-.6.3-1.7.3-2.8-.9-3.6-1.4c-.9-.6-2.4-1.5-3.9-1.9-2.9,0-4.8-.8-6.2-2.7-1.5-1.9-2.2-4.3-2.2-7.2,0-4.2,1.6-7.5,4.4-9,1.1-.6,2.6-.9,4-.9,5.1,0,8.3,3.8,8.3,9.8s-1.5,7.3-3.8,8.9c.5.2,1.3.7,1.7,1,.7.4,1.5.8,2.4.8s1.7-.1,1.7-.1l-1,2.5"/>
  <path class="cls-1" d="M101.4,43.1c-.5-.3-.9-.8-1.1-1.4-.9.9-2.2,1.4-3.8,1.4s-3.7-.9-4.2-2.3c-.2-.6-.3-1.4-.3-2.8v-9.1l3.7-.7v9.1c0,1.3.1,1.9.3,2.3.2.4.8.7,1.3.7.9,0,2-.7,2.3-1.4v-10l3.6-.8v10.9c0,.9.3,1.9.9,2.6l-2.6,1.5"/>
  <path class="cls-1" d="M114.9,33.8c0-1-.1-1.6-.4-2.1-.4-.6-.9-.8-1.6-.8-1.4,0-2.2,1.1-2.2,3.1h0c0,0,4.3,0,4.3,0v-.2h0ZM110.6,36.7h0c0,2.3,1.1,3.5,3,3.5s2.5-.5,3.6-1.4l1.4,2.2c-1.6,1.3-3.4,2-5.4,2-4.1,0-6.7-2.9-6.7-7.3s.5-4.2,1.8-5.6c1.2-1.3,2.6-1.9,4.5-1.9s3.2.6,4.1,1.5c1.3,1.3,1.9,3.3,1.9,6.2v.9h-8.2"/>
  <path class="cls-1" d="M129.3,33.8c0-1-.1-1.6-.4-2.1-.4-.6-.9-.8-1.6-.8-1.4,0-2.2,1.1-2.2,3.1h0c0,0,4.3,0,4.3,0v-.2h0ZM124.9,36.7h0c0,2.3,1.1,3.5,3,3.5s2.5-.5,3.6-1.4l1.4,2.2c-1.6,1.3-3.4,2-5.4,2-4.1,0-6.7-2.9-6.7-7.3s.5-4.2,1.8-5.6c1.2-1.3,2.6-1.9,4.5-1.9s3.2.6,4.1,1.5c1.3,1.3,1.9,3.3,1.9,6.2v.9h-8.2"/>
  <path class="cls-1" d="M143.7,42.7v-9.2c0-1.6-.3-2.1-1.2-2.1s-1.7.5-2.6,1.3v10h-3.7v-10.3c0-1.2-.2-2.4-.5-3.3l3.3-.9c.3.6.5,1.2.5,1.8.6-.4,1-.7,1.6-1.1.8-.4,1.7-.6,2.6-.6,1.6,0,3,.8,3.4,2,.2.5.3,1.1.3,2v10.4h-3.7"/>
  <path class="cls-1" d="M155.8,43.1c-1.8,0-3.7-.6-5.7-1.6l1.3-2.7c1.1.7,3.1,1.6,4.7,1.6s1.9-.7,1.9-1.6-.7-1.5-2.2-1.8l-1.7-.3c-.9-.2-2.1-.8-2.6-1.4-.5-.6-.8-1.6-.8-2.5,0-2.8,2.2-4.6,5.5-4.6s3.8.7,5.1,1.3l-1.2,2.5c-1.4-.7-2.4-1-3.5-1s-1.8.6-1.8,1.4.5,1.1,1.8,1.4l1.7.4c1.8.4,2.3,1,2.8,1.6.5.7.8,1.5.8,2.4,0,3-2.5,5-6.1,5"/>
  <path class="cls-1" d="M168.4,43c-1.6,0-2.9-.8-3.3-1.9-.3-.7-.3-1.2-.3-3.2v-10.6c0-1.9,0-3-.2-4.3l3.8-.9c.1.8.2,1.7.2,3.7v11.1c0,2.4,0,2.8.2,3.2.1.2.4.4.8.4s.2,0,.4,0l.6,2.2c-.6.3-1.4.4-2.2.4"/>
  <path class="cls-1" d="M179.3,36.5c-2.6,0-3.5.5-3.5,2.2s.7,1.9,1.6,1.9,1.4-.4,1.9-1v-3c0,0-.1,0-.1,0h0ZM182.4,43.4c-.9-.4-1.6-1-2-1.7-.3.3-.6.6-.9.8-.7.5-1.7.8-2.9.8-3.2,0-4.9-1.6-4.9-4.4s2.3-4.9,6.8-4.9.5,0,.8,0v-.6c0-1.6-.3-2.1-1.7-2.1s-2.6.6-4.1,1.6l-1.6-2.7c.8-.5,1.3-.8,2.3-1.2,1.4-.6,2.6-.8,3.9-.8,2.4,0,4,.9,4.6,2.5.2.6.3,1,.2,2.5v4.8c-.1,1.5,0,2.2,1.2,3.2l-2,2.3"/>
  <path class="cls-1" d="M194.9,42.7v-9.2c0-1.6-.3-2.1-1.2-2.1s-1.7.5-2.6,1.3v10h-3.7v-10.3c0-1.2-.2-2.4-.5-3.3l3.3-.9c.3.6.5,1.2.5,1.8.6-.4,1-.7,1.6-1.1.8-.4,1.7-.6,2.6-.6,1.6,0,3,.8,3.4,2,.2.5.3,1.1.3,2v10.4h-3.7"/>
  <path class="cls-1" d="M210.5,32.2c-.7-.6-1.4-.9-2-.9-1.7,0-2.4,1.4-2.4,4.6s.6,4,2.6,4,1.5-.5,1.8-.9v-6.8h0ZM211.3,42.7c-.1-.2-.2-.4-.2-.8-.9.8-2,1.2-3.3,1.2-3.6,0-5.9-2.8-5.9-7.2s2.5-7.5,6.1-7.5,1.8.2,2.5.8c0-.3-.1-1.3-.1-2.1v-4.9l3.7.6v14.8c0,3.5.3,4.6.5,5.2h-3.3"/>
  <path class="cls-1" d="M231.6,43c-2.4,0-4.4-.8-5.9-2.4-1.6-1.8-2.4-4.1-2.4-7.4s1-6.2,2.9-8c1.4-1.2,3-1.8,5-1.8s3.8.6,5.2,1.9l-1,1.4c-1.6-1.1-2.7-1.5-4.1-1.5-2.2,0-4,1-4.8,3.2-.5,1.4-.8,3-.8,4.8s.5,4.5,1.3,5.8,2.8,2,4.6,2,2.2-.2,3-.8v-5.8h-3.8l-.4-1.9h6.4v8.9c-1.4.9-3.4,1.4-5.3,1.4"/>
  <path class="cls-1" d="M248.8,32c-.6-1.2-1.8-1.8-2.9-1.8s-2.4.6-2.8,1.5c-.4.9-.7,2-.7,3.6s.3,3.7.9,4.5c.5.8,1.6,1.4,2.8,1.4s2.5-.8,3-2.1c.3-.9.4-1.6.4-3,0-1.9-.2-3.2-.6-4.2h0ZM246,43c-3.8,0-6-2.8-6-7.4s2.2-7.2,5.9-7.2,3.8,1.1,4.8,2.4c.9,1.2,1.3,2.9,1.3,5.1,0,4.6-2.5,7.1-5.9,7.1"/>
  <path class="cls-1" d="M259.9,42.8h-2.1l-5-13.9,2.2-.5,3.2,9.5c.4,1.1.7,2.4.7,2.4h0s.2-1.1.7-2.3l3.2-9.2h2.3l-5.2,14"/>
  <path class="cls-1" d="M274.4,31.4c-.5-.8-1.5-1.2-2.5-1.2-2,0-3.1,1.4-3.2,4.3h6.3c0-1.5-.2-2.4-.6-3.1ZM268.7,36.1v.3c0,1.3.2,2.3.6,3,.8,1.2,2,1.7,3.4,1.7s2.4-.4,3.4-1.3l.8,1.4c-1.2,1.1-2.9,1.7-4.7,1.7-3.8,0-6.1-2.8-6.1-7.4s.5-3.8,1.7-5.2c1.1-1.3,2.5-1.9,4.1-1.9s2.8.5,3.8,1.5c1.2,1.2,1.6,2.5,1.6,5.8v.3h-8.7"/>
  <path class="cls-1" d="M286.4,30.9c-.1,0-.4-.1-.6-.1-.8,0-1.7.4-2.3,1-.6.6-.8,1.1-.8,2.2v8.7h-2.2v-10.7c0-2-.5-2.9-.5-2.9l2.2-.6s.5,1.1.5,2.2c1-1.4,2.5-2.3,3.9-2.3s.8.1.8.1l-.9,2.4"/>
  <path class="cls-1" d="M296.5,42.7v-9.3c0-1.5-.1-1.8-.5-2.3-.3-.4-.9-.6-1.5-.6-1.1,0-2.8.9-3.8,1.9v10.3h-2.1v-10.7c0-2-.5-2.9-.5-2.9l2.1-.6s.5,1,.5,2.2c1.4-1.4,2.9-2.1,4.4-2.1s2.8.8,3.4,2c.2.5.3,1.1.3,1.6v10.5h-2.2"/>
  <path class="cls-1" d="M318,42.7v-10.2c0-1.3-.6-2-1.8-2s-2.2.8-3.7,2.1v10.1h-2.2v-9.8c0-.8,0-1.4-.4-1.8-.3-.4-.8-.6-1.4-.6-1,0-2.1.5-3.5,1.8v10.3h-2.1v-10.7c0-2-.5-2.9-.5-2.9l2.1-.5s.5,1.1.5,2c.9-1,2.6-2.1,4-2.1s2.7.8,3.2,2.3c1.3-1.4,3-2.3,4.4-2.3,2,0,3.5,1.6,3.5,3.8v10.4h-2.2"/>
  <path class="cls-1" d="M331.9,31.4c-.5-.8-1.4-1.2-2.5-1.2-2,0-3.1,1.4-3.2,4.3h6.3c0-1.5-.2-2.4-.6-3.1ZM326.2,36.1v.3c0,1.3.2,2.3.6,3,.8,1.2,2,1.7,3.4,1.7s2.4-.4,3.4-1.3l.8,1.4c-1.2,1.1-2.9,1.7-4.7,1.7-3.8,0-6.1-2.8-6.1-7.4s.5-3.8,1.7-5.2c1.1-1.3,2.5-1.9,4.1-1.9s2.8.5,3.8,1.5c1.2,1.2,1.6,2.5,1.6,5.8v.3h-8.6"/>
  <path class="cls-1" d="M346,42.7v-9.3c0-1.5-.1-1.8-.5-2.3-.3-.4-.9-.6-1.5-.6-1.1,0-2.8.9-3.8,1.9v10.3h-2.1v-10.7c0-2-.5-2.9-.5-2.9l2.1-.6s.5,1,.5,2.2c1.5-1.4,2.9-2.1,4.4-2.1s2.8.8,3.4,2c.2.5.3,1.1.3,1.6v10.5h-2.2"/>
  <path class="cls-1" d="M357.5,30.5h-2.9v8.9c0,1.5.4,2.1,1.8,2.1s1,0,1.4-.3l.3,1.4c-.7.4-1.5.6-2.4.6s-1.3-.1-1.8-.4c-1-.5-1.3-1.4-1.3-2.8v-9.5h-1.8v-1.6h1.8c0-1.3.2-3.5.2-3.5l2.3-.5s-.3,2.2-.3,4h3.5l-.7,1.6"/>
</svg>